<svg xmlns="http://www.w3.org/2000/svg" version="1.1" xmlns:xlink="http://www.w3.org/1999/xlink" xmlns:svgjs="http://svgjs.com/svgjs" width="1440" height="560" preserveAspectRatio="none" viewBox="0 0 1440 560">
    <g mask="url(&quot;#SvgjsMask3570&quot;)" fill="none">
        <rect width="1440" height="560" x="0" y="0" fill="url(#SvgjsLinearGradient3571)"></rect>
        <path d="M1072 356L844 128" stroke-width="6" stroke="url(#SvgjsLinearGradient3572)" stroke-linecap="round" class="BottomRight"></path>
        <path d="M862 233L1238 609" stroke-width="8" stroke="url(#SvgjsLinearGradient3573)" stroke-linecap="round" class="TopLeft"></path>
        <path d="M175 458L-99 184" stroke-width="8" stroke="url(#SvgjsLinearGradient3573)" stroke-linecap="round" class="TopLeft"></path>
        <path d="M150 132L364 346" stroke-width="8" stroke="url(#SvgjsLinearGradient3572)" stroke-linecap="round" class="BottomRight"></path>
        <path d="M523 33L717 227" stroke-width="10" stroke="url(#SvgjsLinearGradient3572)" stroke-linecap="round" class="BottomRight"></path>
        <path d="M1085 376L1268 559" stroke-width="6" stroke="url(#SvgjsLinearGradient3572)" stroke-linecap="round" class="BottomRight"></path>
        <path d="M779 10L597 -172" stroke-width="10" stroke="url(#SvgjsLinearGradient3572)" stroke-linecap="round" class="BottomRight"></path>
        <path d="M196 354L569 727" stroke-width="8" stroke="url(#SvgjsLinearGradient3573)" stroke-linecap="round" class="TopLeft"></path>
        <path d="M355 540L111 296" stroke-width="10" stroke="url(#SvgjsLinearGradient3573)" stroke-linecap="round" class="TopLeft"></path>
        <path d="M1227 256L1612 641" stroke-width="8" stroke="url(#SvgjsLinearGradient3572)" stroke-linecap="round" class="BottomRight"></path>
        <path d="M1107 229L1424 546" stroke-width="6" stroke="url(#SvgjsLinearGradient3572)" stroke-linecap="round" class="BottomRight"></path>
        <path d="M1142 415L1386 659" stroke-width="8" stroke="url(#SvgjsLinearGradient3573)" stroke-linecap="round" class="TopLeft"></path>
        <path d="M1426 483L1837 894" stroke-width="6" stroke="url(#SvgjsLinearGradient3572)" stroke-linecap="round" class="BottomRight"></path>
        <path d="M686 50L1057 421" stroke-width="10" stroke="url(#SvgjsLinearGradient3572)" stroke-linecap="round" class="BottomRight"></path>
        <path d="M93 180L-216 -129" stroke-width="6" stroke="url(#SvgjsLinearGradient3572)" stroke-linecap="round" class="BottomRight"></path>
        <path d="M929 431L645 147" stroke-width="10" stroke="url(#SvgjsLinearGradient3572)" stroke-linecap="round" class="BottomRight"></path>
        <path d="M804 559L1096 851" stroke-width="6" stroke="url(#SvgjsLinearGradient3573)" stroke-linecap="round" class="TopLeft"></path>
        <path d="M1293 276L983 -34" stroke-width="10" stroke="url(#SvgjsLinearGradient3573)" stroke-linecap="round" class="TopLeft"></path>
        <path d="M1174 155L811 -208" stroke-width="10" stroke="url(#SvgjsLinearGradient3573)" stroke-linecap="round" class="TopLeft"></path>
        <path d="M1162 543L873 254" stroke-width="10" stroke="url(#SvgjsLinearGradient3573)" stroke-linecap="round" class="TopLeft"></path>
        <path d="M184 248L-190 -126" stroke-width="6" stroke="url(#SvgjsLinearGradient3572)" stroke-linecap="round" class="BottomRight"></path>
        <path d="M926 212L1274 560" stroke-width="6" stroke="url(#SvgjsLinearGradient3573)" stroke-linecap="round" class="TopLeft"></path>
        <path d="M1428 234L1744 550" stroke-width="6" stroke="url(#SvgjsLinearGradient3572)" stroke-linecap="round" class="BottomRight"></path>
        <path d="M1272 474L1083 285" stroke-width="6" stroke="url(#SvgjsLinearGradient3572)" stroke-linecap="round" class="BottomRight"></path>
        <path d="M678 154L894 370" stroke-width="10" stroke="url(#SvgjsLinearGradient3573)" stroke-linecap="round" class="TopLeft"></path>
        <path d="M625 246L382 3" stroke-width="8" stroke="url(#SvgjsLinearGradient3572)" stroke-linecap="round" class="BottomRight"></path>
        <path d="M573 529L422 378" stroke-width="10" stroke="url(#SvgjsLinearGradient3572)" stroke-linecap="round" class="BottomRight"></path>
        <path d="M1053 314L807 68" stroke-width="8" stroke="url(#SvgjsLinearGradient3573)" stroke-linecap="round" class="TopLeft"></path>
        <path d="M1393 451L1121 179" stroke-width="8" stroke="url(#SvgjsLinearGradient3572)" stroke-linecap="round" class="BottomRight"></path>
        <path d="M412 474L598 660" stroke-width="6" stroke="url(#SvgjsLinearGradient3572)" stroke-linecap="round" class="BottomRight"></path>
        <path d="M848 140L464 -244" stroke-width="10" stroke="url(#SvgjsLinearGradient3572)" stroke-linecap="round" class="BottomRight"></path>
        <path d="M339 151L-29 -217" stroke-width="6" stroke="url(#SvgjsLinearGradient3573)" stroke-linecap="round" class="TopLeft"></path>
        <path d="M1030 66L850 -114" stroke-width="10" stroke="url(#SvgjsLinearGradient3573)" stroke-linecap="round" class="TopLeft"></path>
        <path d="M963 369L685 91" stroke-width="6" stroke="url(#SvgjsLinearGradient3572)" stroke-linecap="round" class="BottomRight"></path>
        <path d="M1158 351L823 16" stroke-width="10" stroke="url(#SvgjsLinearGradient3572)" stroke-linecap="round" class="BottomRight"></path>
        <path d="M160 164L475 479" stroke-width="8" stroke="url(#SvgjsLinearGradient3572)" stroke-linecap="round" class="BottomRight"></path>
        <path d="M1082 529L722 169" stroke-width="10" stroke="url(#SvgjsLinearGradient3572)" stroke-linecap="round" class="BottomRight"></path>
        <path d="M206 536L46 376" stroke-width="8" stroke="url(#SvgjsLinearGradient3573)" stroke-linecap="round" class="TopLeft"></path>
        <path d="M849 345L521 17" stroke-width="10" stroke="url(#SvgjsLinearGradient3572)" stroke-linecap="round" class="BottomRight"></path>
    </g>
    <defs>
        <mask id="SvgjsMask3570">
            <rect width="1440" height="560" fill="#ffffff"></rect>
        </mask>
        <linearGradient x1="15.28%" y1="-39.29%" x2="84.72%" y2="139.29%" gradientUnits="userSpaceOnUse" id="SvgjsLinearGradient3571">
            <stop stop-color="#0e2a47" offset="0"></stop>
            <stop stop-color="rgba(26, 35, 48, 1)" offset="1"></stop>
        </linearGradient>
        <linearGradient x1="0%" y1="0%" x2="100%" y2="100%" id="SvgjsLinearGradient3572">
            <stop stop-color="rgba(28, 83, 142, 0)" offset="0"></stop>
            <stop stop-color="#1c538e" offset="1"></stop>
        </linearGradient>
        <linearGradient x1="100%" y1="100%" x2="0%" y2="0%" id="SvgjsLinearGradient3573">
            <stop stop-color="rgba(28, 83, 142, 0)" offset="0"></stop>
            <stop stop-color="#1c538e" offset="1"></stop>
        </linearGradient>
    </defs>
</svg>