<svg xmlns="http://www.w3.org/2000/svg" version="1.1" xmlns:xlink="http://www.w3.org/1999/xlink" xmlns:svgjs="http://svgjs.com/svgjs" width="1920" height="1080" preserveAspectRatio="none" viewBox="0 0 1920 1080">
    <g mask="url(&quot;#SvgjsMask1036&quot;)" fill="none">
        <rect width="1920" height="1080" x="0" y="0" fill="url(#SvgjsLinearGradient1037)"></rect>
        <path d="M1864 4L1581 -279" stroke-width="10" stroke="url(#SvgjsLinearGradient1038)" stroke-linecap="round" class="TopLeft"></path>
        <path d="M103 25L511 433" stroke-width="10" stroke="url(#SvgjsLinearGradient1039)" stroke-linecap="round" class="BottomRight"></path>
        <path d="M827 450L1572 1195" stroke-width="6" stroke="url(#SvgjsLinearGradient1038)" stroke-linecap="round" class="TopLeft"></path>
        <path d="M378 266L1167 1055" stroke-width="10" stroke="url(#SvgjsLinearGradient1038)" stroke-linecap="round" class="TopLeft"></path>
        <path d="M542 580L943 981" stroke-width="6" stroke="url(#SvgjsLinearGradient1039)" stroke-linecap="round" class="BottomRight"></path>
        <path d="M1767 324L1251 -192" stroke-width="8" stroke="url(#SvgjsLinearGradient1039)" stroke-linecap="round" class="BottomRight"></path>
        <path d="M1296 542L985 231" stroke-width="10" stroke="url(#SvgjsLinearGradient1039)" stroke-linecap="round" class="BottomRight"></path>
        <path d="M656 705L1386 1435" stroke-width="6" stroke="url(#SvgjsLinearGradient1038)" stroke-linecap="round" class="TopLeft"></path>
        <path d="M1455 725L1939 1209" stroke-width="10" stroke="url(#SvgjsLinearGradient1039)" stroke-linecap="round" class="BottomRight"></path>
        <path d="M361 696L918 1253" stroke-width="10" stroke="url(#SvgjsLinearGradient1039)" stroke-linecap="round" class="BottomRight"></path>
        <path d="M1684 345L2254 915" stroke-width="8" stroke="url(#SvgjsLinearGradient1038)" stroke-linecap="round" class="TopLeft"></path>
        <path d="M210 815L938 1543" stroke-width="8" stroke="url(#SvgjsLinearGradient1038)" stroke-linecap="round" class="TopLeft"></path>
        <path d="M393 915L992 1514" stroke-width="6" stroke="url(#SvgjsLinearGradient1039)" stroke-linecap="round" class="BottomRight"></path>
        <path d="M1467 622L1930 1085" stroke-width="10" stroke="url(#SvgjsLinearGradient1038)" stroke-linecap="round" class="TopLeft"></path>
        <path d="M1826 513L1064 -249" stroke-width="8" stroke="url(#SvgjsLinearGradient1038)" stroke-linecap="round" class="TopLeft"></path>
        <path d="M1782 883L2322 1423" stroke-width="8" stroke="url(#SvgjsLinearGradient1038)" stroke-linecap="round" class="TopLeft"></path>
        <path d="M1265 470L1977 1182" stroke-width="6" stroke="url(#SvgjsLinearGradient1039)" stroke-linecap="round" class="BottomRight"></path>
        <path d="M807 284L27 -496" stroke-width="6" stroke="url(#SvgjsLinearGradient1038)" stroke-linecap="round" class="TopLeft"></path>
        <path d="M1754 663L2082 991" stroke-width="10" stroke="url(#SvgjsLinearGradient1039)" stroke-linecap="round" class="BottomRight"></path>
        <path d="M1296 329L587 -380" stroke-width="6" stroke="url(#SvgjsLinearGradient1038)" stroke-linecap="round" class="TopLeft"></path>
        <path d="M334 370L-312 -276" stroke-width="8" stroke="url(#SvgjsLinearGradient1039)" stroke-linecap="round" class="BottomRight"></path>
        <path d="M1615 7L1179 -429" stroke-width="6" stroke="url(#SvgjsLinearGradient1039)" stroke-linecap="round" class="BottomRight"></path>
        <path d="M751 1054L-48 255" stroke-width="6" stroke="url(#SvgjsLinearGradient1038)" stroke-linecap="round" class="TopLeft"></path>
        <path d="M7 819L523 1335" stroke-width="8" stroke="url(#SvgjsLinearGradient1039)" stroke-linecap="round" class="BottomRight"></path>
        <path d="M284 863L654 1233" stroke-width="8" stroke="url(#SvgjsLinearGradient1038)" stroke-linecap="round" class="TopLeft"></path>
        <path d="M1747 64L2167 484" stroke-width="8" stroke="url(#SvgjsLinearGradient1038)" stroke-linecap="round" class="TopLeft"></path>
        <path d="M251 997L-230 516" stroke-width="10" stroke="url(#SvgjsLinearGradient1038)" stroke-linecap="round" class="TopLeft"></path>
        <path d="M1903 693L1471 261" stroke-width="6" stroke="url(#SvgjsLinearGradient1038)" stroke-linecap="round" class="TopLeft"></path>
        <path d="M932 460L263 -209" stroke-width="6" stroke="url(#SvgjsLinearGradient1039)" stroke-linecap="round" class="BottomRight"></path>
        <path d="M1552 918L2328 1694" stroke-width="6" stroke="url(#SvgjsLinearGradient1038)" stroke-linecap="round" class="TopLeft"></path>
        <path d="M805 350L18 -437" stroke-width="10" stroke="url(#SvgjsLinearGradient1039)" stroke-linecap="round" class="BottomRight"></path>
        <path d="M190 303L800 913" stroke-width="8" stroke="url(#SvgjsLinearGradient1038)" stroke-linecap="round" class="TopLeft"></path>
        <path d="M602 282L85 -235" stroke-width="8" stroke="url(#SvgjsLinearGradient1039)" stroke-linecap="round" class="BottomRight"></path>
        <path d="M420 117L117 -186" stroke-width="10" stroke="url(#SvgjsLinearGradient1038)" stroke-linecap="round" class="TopLeft"></path>
        <path d="M699 884L1117 1302" stroke-width="6" stroke="url(#SvgjsLinearGradient1038)" stroke-linecap="round" class="TopLeft"></path>
        <path d="M467 559L-209 -117" stroke-width="10" stroke="url(#SvgjsLinearGradient1039)" stroke-linecap="round" class="BottomRight"></path>
        <path d="M396 85L1082 771" stroke-width="8" stroke="url(#SvgjsLinearGradient1039)" stroke-linecap="round" class="BottomRight"></path>
        <path d="M1261 846L1878 1463" stroke-width="8" stroke="url(#SvgjsLinearGradient1039)" stroke-linecap="round" class="BottomRight"></path>
        <path d="M1489 216L1782 509" stroke-width="10" stroke="url(#SvgjsLinearGradient1038)" stroke-linecap="round" class="TopLeft"></path>
        <path d="M1008 372L347 -289" stroke-width="8" stroke="url(#SvgjsLinearGradient1038)" stroke-linecap="round" class="TopLeft"></path>
        <path d="M111 794L880 1563" stroke-width="6" stroke="url(#SvgjsLinearGradient1038)" stroke-linecap="round" class="TopLeft"></path>
        <path d="M76 532L425 881" stroke-width="6" stroke="url(#SvgjsLinearGradient1039)" stroke-linecap="round" class="BottomRight"></path>
        <path d="M1322 361L933 -28" stroke-width="6" stroke="url(#SvgjsLinearGradient1038)" stroke-linecap="round" class="TopLeft"></path>
        <path d="M328 572L-267 -23" stroke-width="8" stroke="url(#SvgjsLinearGradient1038)" stroke-linecap="round" class="TopLeft"></path>
        <path d="M1322 945L1919 1542" stroke-width="8" stroke="url(#SvgjsLinearGradient1039)" stroke-linecap="round" class="BottomRight"></path>
        <path d="M1737 760L2270 1293" stroke-width="6" stroke="url(#SvgjsLinearGradient1038)" stroke-linecap="round" class="TopLeft"></path>
        <path d="M211 599L-477 -89" stroke-width="6" stroke="url(#SvgjsLinearGradient1039)" stroke-linecap="round" class="BottomRight"></path>
        <path d="M1446 544L1950 1048" stroke-width="6" stroke="url(#SvgjsLinearGradient1039)" stroke-linecap="round" class="BottomRight"></path>
        <path d="M814 307L515 8" stroke-width="10" stroke="url(#SvgjsLinearGradient1039)" stroke-linecap="round" class="BottomRight"></path>
        <path d="M1422 197L1881 656" stroke-width="10" stroke="url(#SvgjsLinearGradient1039)" stroke-linecap="round" class="BottomRight"></path>
        <path d="M842 445L1156 759" stroke-width="8" stroke="url(#SvgjsLinearGradient1038)" stroke-linecap="round" class="TopLeft"></path>
        <path d="M816 542L1142 868" stroke-width="6" stroke="url(#SvgjsLinearGradient1038)" stroke-linecap="round" class="TopLeft"></path>
        <path d="M955 850L346 241" stroke-width="8" stroke="url(#SvgjsLinearGradient1038)" stroke-linecap="round" class="TopLeft"></path>
        <path d="M466 27L-75 -514" stroke-width="8" stroke="url(#SvgjsLinearGradient1038)" stroke-linecap="round" class="TopLeft"></path>
        <path d="M604 941L1033 1370" stroke-width="6" stroke="url(#SvgjsLinearGradient1039)" stroke-linecap="round" class="BottomRight"></path>
        <path d="M1486 728L892 134" stroke-width="6" stroke="url(#SvgjsLinearGradient1039)" stroke-linecap="round" class="BottomRight"></path>
    </g>
    <defs>
        <mask id="SvgjsMask1036">
            <rect width="1920" height="1080" fill="#ffffff"></rect>
        </mask>
        <linearGradient x1="10.94%" y1="-19.44%" x2="89.06%" y2="119.44%" gradientUnits="userSpaceOnUse" id="SvgjsLinearGradient1037">
            <stop stop-color="#0e2a47" offset="0"></stop>
            <stop stop-color="rgba(26, 35, 48, 1)" offset="1"></stop>
        </linearGradient>
        <linearGradient x1="100%" y1="100%" x2="0%" y2="0%" id="SvgjsLinearGradient1038">
            <stop stop-color="rgba(28, 83, 142, 0)" offset="0"></stop>
            <stop stop-color="#1c538e" offset="1"></stop>
        </linearGradient>
        <linearGradient x1="0%" y1="0%" x2="100%" y2="100%" id="SvgjsLinearGradient1039">
            <stop stop-color="rgba(28, 83, 142, 0)" offset="0"></stop>
            <stop stop-color="#1c538e" offset="1"></stop>
        </linearGradient>
    </defs>
</svg>